<!DOCTYPE svg PUBLIC "-//W3C//DTD SVG 1.1//EN" "http://www.w3.org/Graphics/SVG/1.1/DTD/svg11.dtd">
<!-- Uploaded to: SVG Repo, www.svgrepo.com, Transformed by: SVG Repo Mixer Tools -->
<svg width="64px" height="64px" viewBox="0 0 512 512" xmlns="http://www.w3.org/2000/svg" fill="#000000">
<g id="SVGRepo_bgCarrier" stroke-width="0"/>
<g id="SVGRepo_tracerCarrier" stroke-linecap="round" stroke-linejoin="round"/>
<g id="SVGRepo_iconCarrier">
<path fill="#000000" d="M302.87 255.5a47.37 47.37 0 1 1-47.37-47.37 47.37 47.37 0 0 1 47.37 47.37zM382.5 81.18a47.37 47.37 0 1 0 47.32 47.32 47.37 47.37 0 0 0-47.32-47.32zm-254 253.91a47.37 47.37 0 1 0 47.41 47.41 47.37 47.37 0 0 0-47.41-47.41zm356 92.94a56.48 56.48 0 0 1-56.48 56.47h-344a56.48 56.48 0 0 1-56.52-56.48v-344A56.48 56.48 0 0 1 83.98 27.5h344a56.48 56.48 0 0 1 56.52 56.48zm-20-344a36.48 36.48 0 0 0-36.48-36.53h-344A36.48 36.48 0 0 0 47.5 83.98v344a36.48 36.48 0 0 0 36.48 36.52h344a36.48 36.48 0 0 0 36.52-36.48z" class="cls-1"/>
</g>
</svg>